<svg width="785" height="104" viewBox="0 0 785 104" fill="none" xmlns="http://www.w3.org/2000/svg">
<g opacity="0.5" filter="url(#filter0_d_0_46)">
<mask id="path-1-inside-1_0_46" fill="white">
<path fill-rule="evenodd" clip-rule="evenodd" d="M4 95.9997C4 95.9997 196.477 -116.458 397.059 95.9997C397.059 95.9997 573.327 -117.754 781 95.9997"/>
</mask>
<path fill-rule="evenodd" clip-rule="evenodd" d="M4 95.9997C4 95.9997 196.477 -116.458 397.059 95.9997C397.059 95.9997 573.327 -117.754 781 95.9997" fill="black" fill-opacity="0.01" shape-rendering="crispEdges"/>
<path d="M397.059 95.9997L396.332 96.6862L397.109 97.5101L397.83 96.6359L397.059 95.9997ZM4 95.9997C4.74109 96.6711 4.7415 96.6707 4.74263 96.6694C4.74398 96.6679 4.74585 96.6659 4.74856 96.6629C4.75397 96.6569 4.76231 96.6478 4.77356 96.6355C4.79606 96.6108 4.83021 96.5735 4.87592 96.5239C4.96735 96.4246 5.10503 96.2759 5.28825 96.0802C5.65469 95.6888 6.20331 95.1095 6.92846 94.3617C8.37878 92.8662 10.5351 90.6968 13.3525 88.0092C18.9875 82.6336 27.2652 75.1861 37.8255 66.9099C58.9504 50.3538 89.1856 30.4996 125.652 17.2679C162.113 4.03838 204.783 -2.56456 250.812 7.34651C296.836 17.2565 346.302 43.6948 396.332 96.6862L397.786 95.3132C347.524 42.0755 297.712 15.3993 251.233 5.39132C204.759 -4.61556 161.701 2.06013 124.97 15.3879C88.2448 28.7134 57.8244 48.6952 36.5918 65.3357C25.9732 73.6577 17.6466 81.1487 11.972 86.562C9.13456 89.2688 6.95979 91.4565 5.49269 92.9694C4.75913 93.7259 4.20245 94.3136 3.82829 94.7132C3.6412 94.9131 3.49974 95.0658 3.40461 95.1692C3.35705 95.2208 3.32106 95.2601 3.29675 95.2867C3.28459 95.3001 3.27535 95.3102 3.26904 95.3171C3.26588 95.3206 3.26335 95.3234 3.26177 95.3251C3.25997 95.3271 3.2589 95.3283 4 95.9997ZM397.059 95.9997C397.83 96.6359 397.831 96.6355 397.832 96.6343C397.833 96.6328 397.834 96.6308 397.837 96.6278C397.842 96.6218 397.849 96.6127 397.86 96.6003C397.88 96.5756 397.911 96.5382 397.953 96.4883C398.037 96.3886 398.163 96.2392 398.331 96.0425C398.667 95.6491 399.171 95.0667 399.837 94.3147C401.171 92.8108 403.156 90.6292 405.759 87.926C410.964 82.5195 418.636 75.0289 428.491 66.7045C448.205 50.052 476.632 30.0838 511.509 16.7764C546.377 3.47208 587.68 -3.17108 633.183 6.7992C678.686 16.7694 728.474 43.3711 780.283 96.6965L781.717 95.3029C729.689 41.7515 679.567 14.9148 633.611 4.84554C587.657 -5.22359 545.954 1.49286 510.796 14.9078C475.646 28.3196 447.026 48.4302 427.2 65.1767C417.285 73.5518 409.563 81.0907 404.318 86.5389C401.695 89.2631 399.691 91.465 398.341 92.9879C397.666 93.7494 397.154 94.3411 396.81 94.7436C396.638 94.9448 396.508 95.0987 396.421 95.2028C396.377 95.2549 396.344 95.2945 396.322 95.3214C396.311 95.3348 396.302 95.3451 396.297 95.3521C396.294 95.3556 396.291 95.3585 396.29 95.3602C396.288 95.3623 396.287 95.3635 397.059 95.9997Z" fill="white" mask="url(#path-1-inside-1_0_46)"/>
</g>
<defs>
<filter id="filter0_d_0_46" x="0" y="0.998047" width="785" height="103.002" filterUnits="userSpaceOnUse" color-interpolation-filters="sRGB">
<feFlood flood-opacity="0" result="BackgroundImageFix"/>
<feColorMatrix in="SourceAlpha" type="matrix" values="0 0 0 0 0 0 0 0 0 0 0 0 0 0 0 0 0 0 127 0" result="hardAlpha"/>
<feOffset dy="4"/>
<feGaussianBlur stdDeviation="2"/>
<feComposite in2="hardAlpha" operator="out"/>
<feColorMatrix type="matrix" values="0 0 0 0 0 0 0 0 0 0 0 0 0 0 0 0 0 0 0.25 0"/>
<feBlend mode="normal" in2="BackgroundImageFix" result="effect1_dropShadow_0_46"/>
<feBlend mode="normal" in="SourceGraphic" in2="effect1_dropShadow_0_46" result="shape"/>
</filter>
</defs>
</svg>
